# xmcd
#
# Track frame offsets: 
#        150
#        10110
#        19499
#        31834
#        42403
#        54929
#        67507
#        79327
#        88575
#        97047
#        108207
#        115162
#        126845
#        136782
#        148511
#        159848
#        172866
#        183309
#        192205
#        202200
#        214002
#        226175
#        236499
#        247321
#        259740
#
# Disc length: 3658 seconds
#
# Revision: 0
# Processed by: cddbd v1.5.2PL0 Copyright (c) Steve Scherf et al.
# Submitted via: ExactAudioCopy v0.99pb5
#
DISCID=4b0e4819
DTITLE=Elvis Presley  - 75  (UK Boxset) CD1
DYEAR=1900
DGENRE=
TTITLE0=Heartbreak Hotel
TTITLE1=Blue Suede Shoes
TTITLE2=I Want You I Need You I Love You
TTITLE3=Hound Dog
TTITLE4=Blue Moon
TTITLE5=Love Me Tender
TTITLE6=Too Much
TTITLE7=All Shook Up
TTITLE8=(Let Me Be Your) Teddy Bear
TTITLE9=Paralyzed
TTITLE10=(Lets Have A) Party
TTITLE11=Got A Lot O Livin To Do
TTITLE12=Lawdy Miss Clawdy
TTITLE13=Trying To Get To You
TTITLE14=Jailhouse Rock
TTITLE15=Dont
TTITLE16=Wear My Ring Around Your Neek
TTITLE17=Hard Headed Woman
TTITLE18=King Creole
TTITLE19=One Night
TTITLE20=(Now And Then Theres) A Fool Such As I
TTITLE21=A Big Hunk O Love
TTITLE22=Stuck On You
TTITLE23=A Mess Of Blues
TTITLE24=Its Now Or Never
EXTD=
EXTT0=
EXTT1=
EXTT2=
EXTT3=
EXTT4=
EXTT5=
EXTT6=
EXTT7=
EXTT8=
EXTT9=
EXTT10=
EXTT11=
EXTT12=
EXTT13=
EXTT14=
EXTT15=
EXTT16=
EXTT17=
EXTT18=
EXTT19=
EXTT20=
EXTT21=
EXTT22=
EXTT23=
EXTT24=
PLAYORDER=
